<?xml version="1.0" encoding="UTF-8"?>
<svg width="185px" height="185px" viewBox="0 0 185 185" version="1.1" xmlns="http://www.w3.org/2000/svg" xmlns:xlink="http://www.w3.org/1999/xlink">
    <!-- Generator: Sketch 58 (84663) - https://sketch.com -->
    <title>company</title>
    <desc>Created with Sketch.</desc>
    <g id="Page-2" stroke="none" stroke-width="1" fill="none" fill-rule="evenodd">
        <g id="New-All-Desktop" transform="translate(-149.000000, -1815.000000)" fill-rule="nonzero">
            <g id="About" transform="translate(0.000000, 1035.000000)">
                <g id="company" transform="translate(149.000000, 780.000000)">
                    <g id="Group" transform="translate(19.000000, 65.000000)" fill="#56DC92">
                        <rect id="Rectangle" x="101.675676" y="98.5263158" width="12.3243243" height="18.4736842"></rect>
                        <rect id="Rectangle" x="0" y="0" width="18.4864865" height="24.6315789"></rect>
                    </g>
                    <g id="Group">
                        <path d="M3.08333333,92.5 L18.5,92.5 L37,92.5 L52.4166667,92.5 L89.4166667,92.5 C91.12175,92.5 92.5,91.1186667 92.5,89.4166667 L92.5,40.0833333 C92.5,38.3813333 91.12175,37 89.4166667,37 L55.5,37 L55.5,3.08333333 C55.5,1.38133333 54.12175,0 52.4166667,0 L3.08333333,0 C1.37825,0 0,1.38133333 0,3.08333333 L0,89.4166667 C0,91.1186667 1.37825,92.5 3.08333333,92.5 Z M21.5833333,86.3333333 L21.5833333,67.8333333 L33.9166667,67.8333333 L33.9166667,86.3333333 L21.5833333,86.3333333 Z M86.3333333,43.1666667 L86.3333333,86.3333333 L55.5,86.3333333 L55.5,43.1666667 L86.3333333,43.1666667 Z M6.16666667,6.16666667 L49.3333333,6.16666667 L49.3333333,40.0833333 L49.3333333,86.3333333 L40.0833333,86.3333333 L40.0833333,67.8333333 L43.1666667,67.8333333 L43.1666667,61.6666667 L37,61.6666667 L18.5,61.6666667 L12.3333333,61.6666667 L12.3333333,67.8333333 L15.4166667,67.8333333 L15.4166667,86.3333333 L6.16666667,86.3333333 L6.16666667,6.16666667 Z" id="Shape" fill="#2A0E54"></path>
                        <path d="M181.916667,129.5 L148,129.5 L148,92.5 C148,90.798 146.62175,89.4166667 144.916667,89.4166667 L107.916667,89.4166667 C106.211583,89.4166667 104.833333,90.798 104.833333,92.5 L104.833333,129.5 L70.9166667,129.5 C69.2115833,129.5 67.8333333,130.881333 67.8333333,132.583333 L67.8333333,181.916667 C67.8333333,183.618667 69.2115833,185 70.9166667,185 L107.916667,185 L120.25,185 L132.583333,185 L144.916667,185 L181.916667,185 C183.62175,185 185,183.618667 185,181.916667 L185,132.583333 C185,130.881333 183.62175,129.5 181.916667,129.5 Z M74,135.666667 L104.833333,135.666667 L104.833333,178.833333 L74,178.833333 L74,135.666667 Z M111,132.583333 L111,95.5833333 L141.833333,95.5833333 L141.833333,132.583333 L141.833333,178.833333 L135.666667,178.833333 L135.666667,163.416667 C135.666667,161.714667 134.288417,160.333333 132.583333,160.333333 L120.25,160.333333 C118.544917,160.333333 117.166667,161.714667 117.166667,163.416667 L117.166667,178.833333 L111,178.833333 L111,132.583333 Z M123.333333,178.833333 L123.333333,166.5 L129.5,166.5 L129.5,178.833333 L123.333333,178.833333 Z M178.833333,178.833333 L148,178.833333 L148,135.666667 L178.833333,135.666667 L178.833333,178.833333 Z" id="Shape" fill="#2A0E54"></path>
                        <rect id="Rectangle" fill="#00386D" x="12.3333333" y="12.3333333" width="6.16666667" height="6.16666667"></rect>
                        <rect id="Rectangle" fill="#00386D" x="24.6666667" y="12.3333333" width="6.16666667" height="6.16666667"></rect>
                        <rect id="Rectangle" fill="#00386D" x="37" y="12.3333333" width="6.16666667" height="6.16666667"></rect>
                        <rect id="Rectangle" fill="#00386D" x="12.3333333" y="24.6666667" width="6.16666667" height="6.16666667"></rect>
                        <rect id="Rectangle" fill="#00386D" x="24.6666667" y="24.6666667" width="6.16666667" height="6.16666667"></rect>
                        <rect id="Rectangle" fill="#00386D" x="37" y="24.6666667" width="6.16666667" height="6.16666667"></rect>
                        <rect id="Rectangle" fill="#00386D" x="12.3333333" y="37" width="6.16666667" height="6.16666667"></rect>
                        <rect id="Rectangle" fill="#00386D" x="24.6666667" y="37" width="6.16666667" height="6.16666667"></rect>
                        <rect id="Rectangle" fill="#00386D" x="37" y="37" width="6.16666667" height="6.16666667"></rect>
                        <rect id="Rectangle" fill="#00386D" x="61.6666667" y="49.3333333" width="6.16666667" height="6.16666667"></rect>
                        <rect id="Rectangle" fill="#00386D" x="74" y="49.3333333" width="6.16666667" height="6.16666667"></rect>
                        <rect id="Rectangle" fill="#00386D" x="61.6666667" y="61.6666667" width="6.16666667" height="6.16666667"></rect>
                        <rect id="Rectangle" fill="#00386D" x="74" y="61.6666667" width="6.16666667" height="6.16666667"></rect>
                        <rect id="Rectangle" fill="#00386D" x="117.166667" y="101.75" width="6.16666667" height="6.16666667"></rect>
                        <rect id="Rectangle" fill="#00386D" x="129.5" y="101.75" width="6.16666667" height="6.16666667"></rect>
                        <rect id="Rectangle" fill="#00386D" x="117.166667" y="114.083333" width="6.16666667" height="6.16666667"></rect>
                        <rect id="Rectangle" fill="#00386D" x="129.5" y="114.083333" width="6.16666667" height="6.16666667"></rect>
                        <rect id="Rectangle" fill="#00386D" x="117.166667" y="126.416667" width="6.16666667" height="6.16666667"></rect>
                        <rect id="Rectangle" fill="#00386D" x="129.5" y="126.416667" width="6.16666667" height="6.16666667"></rect>
                        <rect id="Rectangle" fill="#00386D" x="117.166667" y="138.75" width="6.16666667" height="6.16666667"></rect>
                        <rect id="Rectangle" fill="#00386D" x="129.5" y="138.75" width="6.16666667" height="6.16666667"></rect>
                        <rect id="Rectangle" fill="#00386D" x="154.166667" y="141.833333" width="6.16666667" height="6.16666667"></rect>
                        <rect id="Rectangle" fill="#00386D" x="166.5" y="141.833333" width="6.16666667" height="6.16666667"></rect>
                        <rect id="Rectangle" fill="#00386D" x="154.166667" y="154.166667" width="6.16666667" height="6.16666667"></rect>
                        <rect id="Rectangle" fill="#00386D" x="166.5" y="154.166667" width="6.16666667" height="6.16666667"></rect>
                        <rect id="Rectangle" fill="#00386D" x="80.1666667" y="141.833333" width="6.16666667" height="6.16666667"></rect>
                        <rect id="Rectangle" fill="#00386D" x="92.5" y="141.833333" width="6.16666667" height="6.16666667"></rect>
                        <rect id="Rectangle" fill="#00386D" x="80.1666667" y="154.166667" width="6.16666667" height="6.16666667"></rect>
                        <rect id="Rectangle" fill="#00386D" x="92.5" y="154.166667" width="6.16666667" height="6.16666667"></rect>
                        <rect id="Rectangle" fill="#00386D" x="61.6666667" y="18.5" width="6.16666667" height="6.16666667"></rect>
                        <rect id="Rectangle" fill="#00386D" x="74" y="18.5" width="6.16666667" height="6.16666667"></rect>
                        <rect id="Rectangle" fill="#00386D" x="86.3333333" y="18.5" width="6.16666667" height="6.16666667"></rect>
                        <rect id="Rectangle" fill="#00386D" x="98.6666667" y="18.5" width="6.16666667" height="6.16666667"></rect>
                        <rect id="Rectangle" fill="#00386D" x="111" y="18.5" width="6.16666667" height="6.16666667"></rect>
                        <rect id="Rectangle" fill="#00386D" x="123.333333" y="18.5" width="6.16666667" height="6.16666667"></rect>
                        <rect id="Rectangle" fill="#00386D" x="135.666667" y="18.5" width="6.16666667" height="6.16666667"></rect>
                        <rect id="Rectangle" fill="#00386D" x="148" y="18.5" width="6.16666667" height="6.16666667"></rect>
                        <rect id="Rectangle" fill="#00386D" x="160.333333" y="18.5" width="6.16666667" height="6.16666667"></rect>
                        <rect id="Rectangle" fill="#00386D" x="160.333333" y="30.8333333" width="6.16666667" height="6.16666667"></rect>
                        <rect id="Rectangle" fill="#00386D" x="160.333333" y="43.1666667" width="6.16666667" height="6.16666667"></rect>
                        <rect id="Rectangle" fill="#00386D" x="160.333333" y="55.5" width="6.16666667" height="6.16666667"></rect>
                        <rect id="Rectangle" fill="#00386D" x="160.333333" y="67.8333333" width="6.16666667" height="6.16666667"></rect>
                        <rect id="Rectangle" fill="#00386D" x="160.333333" y="80.1666667" width="6.16666667" height="6.16666667"></rect>
                        <rect id="Rectangle" fill="#00386D" x="160.333333" y="92.5" width="6.16666667" height="6.16666667"></rect>
                        <rect id="Rectangle" fill="#00386D" x="160.333333" y="104.833333" width="6.16666667" height="6.16666667"></rect>
                        <rect id="Rectangle" fill="#00386D" x="160.333333" y="117.166667" width="6.16666667" height="6.16666667"></rect>
                        <rect id="Rectangle" fill="#00386D" x="18.5" y="98.6666667" width="6.16666667" height="6.16666667"></rect>
                        <rect id="Rectangle" fill="#00386D" x="18.5" y="111" width="6.16666667" height="6.16666667"></rect>
                        <rect id="Rectangle" fill="#00386D" x="18.5" y="123.333333" width="6.16666667" height="6.16666667"></rect>
                        <rect id="Rectangle" fill="#00386D" x="18.5" y="135.666667" width="6.16666667" height="6.16666667"></rect>
                        <rect id="Rectangle" fill="#00386D" x="18.5" y="148" width="6.16666667" height="6.16666667"></rect>
                        <rect id="Rectangle" fill="#00386D" x="18.5" y="160.333333" width="6.16666667" height="6.16666667"></rect>
                        <rect id="Rectangle" fill="#00386D" x="30.8333333" y="160.333333" width="6.16666667" height="6.16666667"></rect>
                        <rect id="Rectangle" fill="#00386D" x="43.1666667" y="160.333333" width="6.16666667" height="6.16666667"></rect>
                        <rect id="Rectangle" fill="#00386D" x="55.5" y="160.333333" width="6.16666667" height="6.16666667"></rect>
                    </g>
                </g>
            </g>
        </g>
    </g>
</svg>