<?xml version="1.0" encoding="UTF-8"?>
<svg width="225px" height="226px" viewBox="0 0 225 226" version="1.1" xmlns="http://www.w3.org/2000/svg" xmlns:xlink="http://www.w3.org/1999/xlink">
    <!-- Generator: Sketch 58 (84663) - https://sketch.com -->
    <title>leadership</title>
    <desc>Created with Sketch.</desc>
    <g id="Page-2" stroke="none" stroke-width="1" fill="none" fill-rule="evenodd">
        <g id="New-All-Desktop" transform="translate(-129.000000, -1110.000000)" fill-rule="nonzero">
            <g id="About" transform="translate(0.000000, 1035.000000)">
                <g id="leadership" transform="translate(129.000000, 75.000000)">
                    <path d="M190.422122,11.8085005 C187.551311,22.0975007 179.338751,30.1353259 168.826077,32.945056 C168.230838,33.1023557 167.878122,33.7018841 168.038841,34.2844581 C168.142298,34.6602819 168.442083,34.9536882 168.826077,35.054944 C179.338751,37.8646741 187.551311,45.9024993 190.422122,56.1914995 C190.582842,56.7740735 191.195403,57.1192851 191.790642,56.9619854 C192.174636,56.8607296 192.474421,56.5673233 192.577878,56.1914995 C195.448689,45.9024993 203.661249,37.8646741 214.173923,35.054944 C214.769162,34.8976443 215.121878,34.2981159 214.961159,33.7155419 C214.857702,33.3397181 214.557917,33.0463118 214.173923,32.945056 C203.661249,30.1353259 195.448689,22.0975007 192.577878,11.8085005 C192.417158,11.2259265 191.804597,10.8807149 191.209358,11.0380146 C190.825845,11.1392704 190.526061,11.4326767 190.422122,11.8085005 Z" id="Path" fill="#56DC92"></path>
                    <g id="Group" fill="#00386D">
                        <path d="M25.6277836,160.874333 C26.4138655,161.658271 27.5067227,162.058008 28.6151786,161.966667 C29.7378151,161.880504 30.7635504,161.300908 31.4134979,160.384667 L35.8756828,154.094333 L35.8756828,222.233333 C35.8756828,224.313475 37.568855,226 39.6571954,226 L62.346271,226 C64.4346113,226 66.1277836,224.313475 66.1277836,222.233333 L66.1277836,161.966667 L92.5983718,161.966667 L92.5983718,180.8 L81.253834,180.8 C79.1654937,180.8 77.4723214,182.486525 77.4723214,184.566667 L77.4723214,222.233333 C77.4723214,224.313475 79.1654937,226 81.253834,226 L156.884086,226 C158.972426,226 160.665599,224.313475 160.665599,222.233333 L160.665599,184.566667 C160.665599,182.486525 158.972426,180.8 156.884086,180.8 L122.850473,180.8 L122.850473,150.666667 C122.850473,140.265487 114.385084,131.833333 103.94291,131.833333 L81.253834,131.833333 L81.253834,111.154333 L132.606775,74.6176667 C133.438708,74.0310083 133.997899,73.1345417 134.157195,72.1316667 C134.307983,71.1320875 134.04895,70.1141458 133.438708,69.3066667 L122.09417,54.24 C120.871796,52.621275 118.583036,52.2549667 116.913498,53.4113333 L78.1529937,80.117 C85.0069853,67.254775 80.0948004,51.2930542 67.1818803,44.4664417 C54.2689601,37.6398292 38.2443277,42.5322583 31.3908088,55.3944833 C25.8797269,65.7363375 27.8758929,78.4591958 36.2921218,86.6333333 L32.0946429,86.6333333 C31.0277836,86.6356875 30.0110294,87.0872167 29.2963235,87.8763333 L4.8677521,114.921 C-1.83923319,122.385121 -1.50693277,133.772225 5.62405462,140.835667 L25.6277836,160.874333 Z M35.8756828,134.507667 L29.8252626,128.066667 L35.8756828,122.04 L35.8756828,134.507667 L35.8756828,134.507667 Z M153.102574,218.466667 L85.0353466,218.466667 L85.0353466,188.333333 L153.102574,188.333333 L153.102574,218.466667 Z M63.7832458,94.1666667 L58.5647584,104.562667 L53.346271,94.1666667 L63.7832458,94.1666667 Z M35.8756828,67.8 C35.8756828,57.3988208 44.3410714,48.9666667 54.7832458,48.9666667 C65.2254202,48.9666667 73.6908088,57.3988208 73.6908088,67.8 C73.6908088,78.2011792 65.2254202,86.6333333 54.7832458,86.6333333 C44.3410714,86.6333333 35.8756828,78.2011792 35.8756828,67.8 Z M10.4639181,119.968333 L33.7958508,94.1666667 L44.8756828,94.1666667 L55.1992122,114.695 C56.1516807,116.546317 58.430042,117.278462 60.2891282,116.329733 C60.9948529,115.969546 61.5691702,115.397954 61.9303046,114.695 L72.8588761,92.9613333 L118.237027,61.6603333 L125.081565,70.738 L75.2790441,106.182333 C74.2873424,106.885287 73.6964811,108.020937 73.6908088,109.233333 L73.6908088,135.6 C73.6908088,137.680142 75.3839811,139.366667 77.4723214,139.366667 L103.94291,139.366667 C110.208403,139.366667 115.287447,144.425771 115.287447,150.666667 L115.287447,180.8 L100.161397,180.8 L100.161397,158.2 C100.161397,156.119858 98.4682248,154.433333 96.3798845,154.433333 L62.346271,154.433333 C60.2579307,154.433333 58.5647584,156.119858 58.5647584,158.2 L58.5647584,218.466667 L43.438708,218.466667 L43.438708,113 C43.431145,111.479208 42.5060924,110.112379 41.0941702,109.534667 C39.6860294,108.944712 38.0595063,109.256875 36.9723214,110.325667 L21.846271,125.392333 C20.405042,126.857096 20.405042,129.200904 21.846271,130.665667 L34.2118172,143.51 L27.8210609,152.399333 L10.8798845,135.6 C6.55997899,131.341783 6.37657563,124.448783 10.4639181,119.968333 L10.4639181,119.968333 Z" id="Shape"></path>
                        <path d="M221.1698,30.1333333 C206.550473,30.1333333 194.699212,18.3286 194.699212,3.76666667 C194.699212,1.686525 193.00604,0 190.9177,0 C188.829359,0 187.136187,1.686525 187.136187,3.76666667 C187.136187,18.3286 175.284926,30.1333333 160.665599,30.1333333 C158.577258,30.1333333 156.884086,31.8198583 156.884086,33.9 C156.884086,35.9801417 158.577258,37.6666667 160.665599,37.6666667 C175.284926,37.6666667 187.136187,49.4714 187.136187,64.0333333 C187.136187,66.113475 188.829359,67.8 190.9177,67.8 C193.00604,67.8 194.699212,66.113475 194.699212,64.0333333 C194.699212,49.4714 206.550473,37.6666667 221.1698,37.6666667 C223.258141,37.6666667 224.951313,35.9801417 224.951313,33.9 C224.951313,31.8198583 223.258613,30.1333333 221.1698,30.1333333 Z M190.9177,48.5146667 C187.657563,42.2525833 182.532668,37.1478083 176.245431,33.9 C182.532195,30.6521917 187.65709,25.5474167 190.9177,19.2853333 C194.178309,25.5474167 199.303204,30.6521917 205.589968,33.9 C199.303204,37.1478083 194.178309,42.2525833 190.9177,48.5146667 Z" id="Shape"></path>
                        <polygon id="Path" points="116.83645 102.418962 127.143908 94.8908083 131.616019 100.965971 121.308561 108.494125"></polygon>
                        <polygon id="Path" points="135.766702 88.6263708 173.571901 60.9950458 178.045903 67.0687958 140.240704 94.7001208"></polygon>
                        <polygon id="Path" points="135.870221 57.1247958 158.555987 42.0604833 162.751103 48.3286875 140.065336 63.393"></polygon>
                    </g>
                </g>
            </g>
        </g>
    </g>
</svg>